<svg width="98" height="22" viewBox="0 0 98 22" fill="none" xmlns="http://www.w3.org/2000/svg">
<g filter="url(#filter0_d_238_187)">
<mask id="path-1-outside-1_238_187" maskUnits="userSpaceOnUse" x="4" y="0" width="90" height="14" fill="black">
<rect fill="white" x="4" width="90" height="14"/>
<path d="M7.576 3.72H5.16V1.8H12.168V3.72H9.752V13H7.576V3.72ZM15.4309 6.504H14.2309C14.0709 6.696 13.9375 6.96267 13.8309 7.304C13.7349 7.64533 13.6869 7.976 13.6869 8.296H15.9749C15.9962 7.976 15.9535 7.64533 15.8469 7.304C15.7402 6.952 15.6015 6.68533 15.4309 6.504ZM17.6069 11.32V13H13.5429C12.7962 12.4987 12.2682 11.88 11.9589 11.144C11.6602 10.3973 11.5109 9.64533 11.5109 8.888C11.5109 7.13867 12.1722 5.784 13.4949 4.824H16.0869C16.8015 5.34667 17.2869 5.90133 17.5429 6.488C17.7989 7.07467 17.9269 7.66667 17.9269 8.264C17.9269 8.86133 17.8789 9.37333 17.7829 9.8H13.7989C13.8309 10.0453 13.9215 10.328 14.0709 10.648C14.2309 10.9573 14.4015 11.1813 14.5829 11.32H17.6069ZM21.5483 7.864L22.5403 4.824H24.7643L23.2443 8.808L24.8283 13H22.6363L21.5323 9.832H21.4683L20.4123 13H18.2203L19.8043 8.808L18.2843 4.824H20.4763L21.4843 7.864H21.5483ZM26.0586 9.432V6.504H24.9546V4.824H26.0586V2.6H28.1866V4.824H29.4986V6.504H28.1866V9.944C28.1866 10.5947 28.2986 11.0533 28.5226 11.32H29.4986V13H27.2266C26.6613 12.4773 26.32 11.912 26.2026 11.304C26.1066 10.792 26.0586 10.168 26.0586 9.432ZM36.9815 9.304H35.2695C35.0455 9.58133 34.9335 9.928 34.9335 10.344C34.9335 10.76 35.0508 11.0853 35.2855 11.32H36.9815V9.304ZM33.5415 4.824H37.5095C38.1495 5.208 38.5708 5.65067 38.7735 6.152C38.9762 6.64267 39.0775 7.31467 39.0775 8.168V10.568C39.0775 11.4533 39.0988 12.264 39.1415 13H37.3175L37.0295 12.424C36.6135 12.808 36.0268 13 35.2695 13H34.2615C33.3548 12.4027 32.9015 11.544 32.9015 10.424C32.9015 9.29333 33.3655 8.40267 34.2935 7.752H35.7975C36.2135 7.752 36.6028 7.88 36.9655 8.136V7.336C36.9655 6.92 36.7842 6.64267 36.4215 6.504H33.5415V4.824ZM44.0056 4.824H45.7016C46.171 5.42133 46.491 6.01867 46.6616 6.616C46.8323 7.21333 46.9176 7.96 46.9176 8.856V13H44.7896V8.696C44.7896 7.68267 44.651 6.952 44.3736 6.504H42.5816V13H40.4536V4.824H42.1176L42.4056 5.4C42.6403 5.18667 42.859 5.03733 43.0616 4.952C43.275 4.86667 43.5896 4.824 44.0056 4.824ZM48.2349 13V4.824H50.3469V13H48.2349ZM48.2349 1.8H50.3469V3.96H48.2349V1.8ZM55.2713 4.824H56.4073L56.8073 5.384C57.0313 5.18133 57.2446 5.03733 57.4473 4.952C57.6606 4.86667 57.9753 4.824 58.3913 4.824H60.1673C60.6366 5.42133 60.9566 6.01867 61.1273 6.616C61.2979 7.21333 61.3833 7.96 61.3833 8.856V13H59.2552V8.696C59.2552 7.71467 59.1059 6.984 58.8073 6.504H57.2713C57.5059 6.96267 57.6233 7.58667 57.6233 8.376V13H55.4953V8.696C55.4953 7.68267 55.3566 6.952 55.0793 6.504H53.8473V13H51.7193V4.824H53.3832L53.6713 5.4C53.9059 5.18667 54.1246 5.03733 54.3273 4.952C54.5406 4.86667 54.8553 4.824 55.2713 4.824ZM66.544 9.304H64.832C64.608 9.58133 64.496 9.928 64.496 10.344C64.496 10.76 64.6133 11.0853 64.848 11.32H66.544V9.304ZM63.104 4.824H67.072C67.712 5.208 68.1333 5.65067 68.336 6.152C68.5387 6.64267 68.64 7.31467 68.64 8.168V10.568C68.64 11.4533 68.6613 12.264 68.704 13H66.88L66.592 12.424C66.176 12.808 65.5893 13 64.832 13H63.824C62.9173 12.4027 62.464 11.544 62.464 10.424C62.464 9.29333 62.928 8.40267 63.856 7.752H65.36C65.776 7.752 66.1653 7.88 66.528 8.136V7.336C66.528 6.92 66.3467 6.64267 65.984 6.504H63.104V4.824ZM70.2461 9.432V6.504H69.1421V4.824H70.2461V2.6H72.3741V4.824H73.6861V6.504H72.3741V9.944C72.3741 10.5947 72.4861 11.0533 72.7101 11.32H73.6861V13H71.4141C70.8488 12.4773 70.5075 11.912 70.3901 11.304C70.2941 10.792 70.2461 10.168 70.2461 9.432ZM74.7505 13V4.824H76.8625V13H74.7505ZM74.7505 1.8H76.8625V3.96H74.7505V1.8ZM83.0989 13H79.6109C78.5442 12.008 78.0109 10.6533 78.0109 8.936C78.0109 8.072 78.1282 7.32 78.3629 6.68C78.6082 6.04 78.9922 5.42133 79.5149 4.824H83.2589C83.8135 5.464 84.1922 6.088 84.3949 6.696C84.5975 7.29333 84.6989 8.04 84.6989 8.936C84.6989 10.6533 84.1655 12.008 83.0989 13ZM80.7469 11.32H81.9629C82.3469 10.5733 82.5389 9.72533 82.5389 8.776C82.5389 7.82667 82.3415 7.06933 81.9469 6.504H80.7469C80.3629 7.048 80.1709 7.82133 80.1709 8.824C80.1709 9.816 80.3629 10.648 80.7469 11.32ZM89.3963 4.824H91.0923C91.5616 5.42133 91.8816 6.01867 92.0523 6.616C92.2229 7.21333 92.3083 7.96 92.3083 8.856V13H90.1803V8.696C90.1803 7.68267 90.0416 6.952 89.7643 6.504H87.9723V13H85.8443V4.824H87.5082L87.7963 5.4C88.0309 5.18667 88.2496 5.03733 88.4523 4.952C88.6656 4.86667 88.9803 4.824 89.3963 4.824Z"/>
</mask>
<path d="M7.576 3.72H5.16V1.8H12.168V3.72H9.752V13H7.576V3.72ZM15.4309 6.504H14.2309C14.0709 6.696 13.9375 6.96267 13.8309 7.304C13.7349 7.64533 13.6869 7.976 13.6869 8.296H15.9749C15.9962 7.976 15.9535 7.64533 15.8469 7.304C15.7402 6.952 15.6015 6.68533 15.4309 6.504ZM17.6069 11.32V13H13.5429C12.7962 12.4987 12.2682 11.88 11.9589 11.144C11.6602 10.3973 11.5109 9.64533 11.5109 8.888C11.5109 7.13867 12.1722 5.784 13.4949 4.824H16.0869C16.8015 5.34667 17.2869 5.90133 17.5429 6.488C17.7989 7.07467 17.9269 7.66667 17.9269 8.264C17.9269 8.86133 17.8789 9.37333 17.7829 9.8H13.7989C13.8309 10.0453 13.9215 10.328 14.0709 10.648C14.2309 10.9573 14.4015 11.1813 14.5829 11.32H17.6069ZM21.5483 7.864L22.5403 4.824H24.7643L23.2443 8.808L24.8283 13H22.6363L21.5323 9.832H21.4683L20.4123 13H18.2203L19.8043 8.808L18.2843 4.824H20.4763L21.4843 7.864H21.5483ZM26.0586 9.432V6.504H24.9546V4.824H26.0586V2.6H28.1866V4.824H29.4986V6.504H28.1866V9.944C28.1866 10.5947 28.2986 11.0533 28.5226 11.32H29.4986V13H27.2266C26.6613 12.4773 26.32 11.912 26.2026 11.304C26.1066 10.792 26.0586 10.168 26.0586 9.432ZM36.9815 9.304H35.2695C35.0455 9.58133 34.9335 9.928 34.9335 10.344C34.9335 10.76 35.0508 11.0853 35.2855 11.32H36.9815V9.304ZM33.5415 4.824H37.5095C38.1495 5.208 38.5708 5.65067 38.7735 6.152C38.9762 6.64267 39.0775 7.31467 39.0775 8.168V10.568C39.0775 11.4533 39.0988 12.264 39.1415 13H37.3175L37.0295 12.424C36.6135 12.808 36.0268 13 35.2695 13H34.2615C33.3548 12.4027 32.9015 11.544 32.9015 10.424C32.9015 9.29333 33.3655 8.40267 34.2935 7.752H35.7975C36.2135 7.752 36.6028 7.88 36.9655 8.136V7.336C36.9655 6.92 36.7842 6.64267 36.4215 6.504H33.5415V4.824ZM44.0056 4.824H45.7016C46.171 5.42133 46.491 6.01867 46.6616 6.616C46.8323 7.21333 46.9176 7.96 46.9176 8.856V13H44.7896V8.696C44.7896 7.68267 44.651 6.952 44.3736 6.504H42.5816V13H40.4536V4.824H42.1176L42.4056 5.4C42.6403 5.18667 42.859 5.03733 43.0616 4.952C43.275 4.86667 43.5896 4.824 44.0056 4.824ZM48.2349 13V4.824H50.3469V13H48.2349ZM48.2349 1.8H50.3469V3.96H48.2349V1.8ZM55.2713 4.824H56.4073L56.8073 5.384C57.0313 5.18133 57.2446 5.03733 57.4473 4.952C57.6606 4.86667 57.9753 4.824 58.3913 4.824H60.1673C60.6366 5.42133 60.9566 6.01867 61.1273 6.616C61.2979 7.21333 61.3833 7.96 61.3833 8.856V13H59.2552V8.696C59.2552 7.71467 59.1059 6.984 58.8073 6.504H57.2713C57.5059 6.96267 57.6233 7.58667 57.6233 8.376V13H55.4953V8.696C55.4953 7.68267 55.3566 6.952 55.0793 6.504H53.8473V13H51.7193V4.824H53.3832L53.6713 5.4C53.9059 5.18667 54.1246 5.03733 54.3273 4.952C54.5406 4.86667 54.8553 4.824 55.2713 4.824ZM66.544 9.304H64.832C64.608 9.58133 64.496 9.928 64.496 10.344C64.496 10.76 64.6133 11.0853 64.848 11.32H66.544V9.304ZM63.104 4.824H67.072C67.712 5.208 68.1333 5.65067 68.336 6.152C68.5387 6.64267 68.64 7.31467 68.64 8.168V10.568C68.64 11.4533 68.6613 12.264 68.704 13H66.88L66.592 12.424C66.176 12.808 65.5893 13 64.832 13H63.824C62.9173 12.4027 62.464 11.544 62.464 10.424C62.464 9.29333 62.928 8.40267 63.856 7.752H65.36C65.776 7.752 66.1653 7.88 66.528 8.136V7.336C66.528 6.92 66.3467 6.64267 65.984 6.504H63.104V4.824ZM70.2461 9.432V6.504H69.1421V4.824H70.2461V2.6H72.3741V4.824H73.6861V6.504H72.3741V9.944C72.3741 10.5947 72.4861 11.0533 72.7101 11.32H73.6861V13H71.4141C70.8488 12.4773 70.5075 11.912 70.3901 11.304C70.2941 10.792 70.2461 10.168 70.2461 9.432ZM74.7505 13V4.824H76.8625V13H74.7505ZM74.7505 1.8H76.8625V3.96H74.7505V1.8ZM83.0989 13H79.6109C78.5442 12.008 78.0109 10.6533 78.0109 8.936C78.0109 8.072 78.1282 7.32 78.3629 6.68C78.6082 6.04 78.9922 5.42133 79.5149 4.824H83.2589C83.8135 5.464 84.1922 6.088 84.3949 6.696C84.5975 7.29333 84.6989 8.04 84.6989 8.936C84.6989 10.6533 84.1655 12.008 83.0989 13ZM80.7469 11.32H81.9629C82.3469 10.5733 82.5389 9.72533 82.5389 8.776C82.5389 7.82667 82.3415 7.06933 81.9469 6.504H80.7469C80.3629 7.048 80.1709 7.82133 80.1709 8.824C80.1709 9.816 80.3629 10.648 80.7469 11.32ZM89.3963 4.824H91.0923C91.5616 5.42133 91.8816 6.01867 92.0523 6.616C92.2229 7.21333 92.3083 7.96 92.3083 8.856V13H90.1803V8.696C90.1803 7.68267 90.0416 6.952 89.7643 6.504H87.9723V13H85.8443V4.824H87.5082L87.7963 5.4C88.0309 5.18667 88.2496 5.03733 88.4523 4.952C88.6656 4.86667 88.9803 4.824 89.3963 4.824Z" fill="white"/>
<path d="M7.576 3.72H8.576V2.72H7.576V3.72ZM5.16 3.72H4.16V4.72H5.16V3.72ZM5.16 1.8V0.799999H4.16V1.8H5.16ZM12.168 1.8H13.168V0.799999H12.168V1.8ZM12.168 3.72V4.72H13.168V3.72H12.168ZM9.752 3.72V2.72H8.752V3.72H9.752ZM9.752 13V14H10.752V13H9.752ZM7.576 13H6.576V14H7.576V13ZM7.576 2.72H5.16V4.72H7.576V2.72ZM6.16 3.72V1.8H4.16V3.72H6.16ZM5.16 2.8H12.168V0.799999H5.16V2.8ZM11.168 1.8V3.72H13.168V1.8H11.168ZM12.168 2.72H9.752V4.72H12.168V2.72ZM8.752 3.72V13H10.752V3.72H8.752ZM9.752 12H7.576V14H9.752V12ZM8.576 13V3.72H6.576V13H8.576ZM15.4309 6.504L16.1591 5.81863L15.8629 5.504H15.4309V6.504ZM14.2309 6.504V5.504H13.7625L13.4627 5.86382L14.2309 6.504ZM13.8309 7.304L12.8764 7.00572L12.8721 7.01943L12.8682 7.03325L13.8309 7.304ZM13.6869 8.296H12.6869V9.296H13.6869V8.296ZM15.9749 8.296V9.296H16.9104L16.9727 8.36252L15.9749 8.296ZM15.8469 7.304L14.8898 7.59402L14.8924 7.60227L15.8469 7.304ZM17.6069 11.32H18.6069V10.32H17.6069V11.32ZM17.6069 13V14H18.6069V13H17.6069ZM13.5429 13L12.9854 13.8302L13.2383 14H13.5429V13ZM11.9589 11.144L11.0304 11.5154L11.0336 11.5235L11.037 11.5315L11.9589 11.144ZM13.4949 4.824V3.824H13.1702L12.9075 4.0147L13.4949 4.824ZM16.0869 4.824L16.6772 4.01683L16.4135 3.824H16.0869V4.824ZM17.5429 6.488L16.6263 6.88794L16.6263 6.88794L17.5429 6.488ZM17.7829 9.8V10.8H18.5829L18.7585 10.0195L17.7829 9.8ZM13.7989 9.8V8.8H12.66L12.8073 9.92934L13.7989 9.8ZM14.0709 10.648L13.1647 11.0709L13.1733 11.0893L13.1827 11.1074L14.0709 10.648ZM14.5829 11.32L13.9754 12.1144L14.2443 12.32H14.5829V11.32ZM15.4309 5.504H14.2309V7.504H15.4309V5.504ZM13.4627 5.86382C13.1909 6.18994 13.0066 6.58897 12.8764 7.00572L14.7854 7.60227C14.8685 7.33636 14.9509 7.20206 14.9991 7.14418L13.4627 5.86382ZM12.8682 7.03325C12.7501 7.45331 12.6869 7.87519 12.6869 8.296H14.6869C14.6869 8.07681 14.7197 7.83736 14.7935 7.57475L12.8682 7.03325ZM13.6869 9.296H15.9749V7.296H13.6869V9.296ZM16.9727 8.36252C17.0031 7.90591 16.9406 7.45142 16.8014 7.00573L14.8924 7.60227C14.9664 7.83925 14.9893 8.04609 14.9771 8.22948L16.9727 8.36252ZM16.8039 7.01399C16.6721 6.57917 16.4738 6.15301 16.1591 5.81863L14.7027 7.18936C14.7293 7.21765 14.8083 7.32483 14.8899 7.59401L16.8039 7.01399ZM16.6069 11.32V13H18.6069V11.32H16.6069ZM17.6069 12H13.5429V14H17.6069V12ZM14.1003 12.1698C13.4946 11.7631 13.1051 11.2904 12.8808 10.7565L11.037 11.5315C11.4313 12.4696 12.0979 13.2343 12.9854 13.8302L14.1003 12.1698ZM12.8874 10.7726C12.633 10.1367 12.5109 9.51039 12.5109 8.888H10.5109C10.5109 9.78028 10.6874 10.658 11.0304 11.5154L12.8874 10.7726ZM12.5109 8.888C12.5109 7.43257 13.0394 6.3902 14.0823 5.6333L12.9075 4.0147C11.305 5.1778 10.5109 6.84476 10.5109 8.888H12.5109ZM13.4949 5.824H16.0869V3.824H13.4949V5.824ZM15.4966 5.63117C16.1207 6.0876 16.4632 6.51404 16.6263 6.88794L18.4594 6.08806C18.1106 5.28863 17.4824 4.60573 16.6772 4.01683L15.4966 5.63117ZM16.6263 6.88794C16.8313 7.35762 16.9269 7.81396 16.9269 8.264H18.9269C18.9269 7.51938 18.7665 6.79172 18.4594 6.08806L16.6263 6.88794ZM16.9269 8.264C16.9269 8.81232 16.8824 9.24661 16.8073 9.58049L18.7585 10.0195C18.8754 9.50005 18.9269 8.91035 18.9269 8.264H16.9269ZM17.7829 8.8H13.7989V10.8H17.7829V8.8ZM12.8073 9.92934C12.8569 10.3095 12.9889 10.6942 13.1647 11.0709L14.9771 10.2251C14.8542 9.9618 14.8049 9.78113 14.7905 9.67066L12.8073 9.92934ZM13.1827 11.1074C13.3781 11.4854 13.6317 11.8515 13.9754 12.1144L15.1903 10.5256C15.1714 10.5112 15.0836 10.4293 14.9591 10.1886L13.1827 11.1074ZM14.5829 12.32H17.6069V10.32H14.5829V12.32ZM21.5483 7.864V8.864H22.2738L22.4989 8.17422L21.5483 7.864ZM22.5403 4.824V3.824H21.8147L21.5896 4.51378L22.5403 4.824ZM24.7643 4.824L25.6986 5.18046L26.2161 3.824H24.7643V4.824ZM23.2443 8.808L22.3099 8.45154L22.1746 8.80629L22.3088 9.16147L23.2443 8.808ZM24.8283 13V14H26.2751L25.7637 12.6465L24.8283 13ZM22.6363 13L21.6919 13.3291L21.9258 14H22.6363V13ZM21.5323 9.832L22.4766 9.50292L22.2427 8.832H21.5323V9.832ZM21.4683 9.832V8.832H20.7475L20.5196 9.51577L21.4683 9.832ZM20.4123 13V14H21.133L21.3609 13.3162L20.4123 13ZM18.2203 13L17.2848 12.6465L16.7734 14H18.2203V13ZM19.8043 8.808L20.7397 9.16147L20.8739 8.80629L20.7386 8.45154L19.8043 8.808ZM18.2843 4.824V3.824H16.8324L17.3499 5.18046L18.2843 4.824ZM20.4763 4.824L21.4254 4.50927L21.1982 3.824H20.4763V4.824ZM21.4843 7.864L20.5351 8.17873L20.7623 8.864H21.4843V7.864ZM22.4989 8.17422L23.4909 5.13422L21.5896 4.51378L20.5976 7.55378L22.4989 8.17422ZM22.5403 5.824H24.7643V3.824H22.5403V5.824ZM23.8299 4.46754L22.3099 8.45154L24.1786 9.16446L25.6986 5.18046L23.8299 4.46754ZM22.3088 9.16147L23.8928 13.3535L25.7637 12.6465L24.1797 8.45453L22.3088 9.16147ZM24.8283 12H22.6363V14H24.8283V12ZM23.5806 12.6709L22.4766 9.50292L20.5879 10.1611L21.6919 13.3291L23.5806 12.6709ZM21.5323 8.832H21.4683V10.832H21.5323V8.832ZM20.5196 9.51577L19.4636 12.6838L21.3609 13.3162L22.4169 10.1482L20.5196 9.51577ZM20.4123 12H18.2203V14H20.4123V12ZM19.1557 13.3535L20.7397 9.16147L18.8688 8.45453L17.2848 12.6465L19.1557 13.3535ZM20.7386 8.45154L19.2186 4.46754L17.3499 5.18046L18.8699 9.16446L20.7386 8.45154ZM18.2843 5.824H20.4763V3.824H18.2843V5.824ZM19.5271 5.13873L20.5351 8.17873L22.4334 7.54927L21.4254 4.50927L19.5271 5.13873ZM21.4843 8.864H21.5483V6.864H21.4843V8.864ZM26.0586 6.504H27.0586V5.504H26.0586V6.504ZM24.9546 6.504H23.9546V7.504H24.9546V6.504ZM24.9546 4.824V3.824H23.9546V4.824H24.9546ZM26.0586 4.824V5.824H27.0586V4.824H26.0586ZM26.0586 2.6V1.6H25.0586V2.6H26.0586ZM28.1866 2.6H29.1866V1.6H28.1866V2.6ZM28.1866 4.824H27.1866V5.824H28.1866V4.824ZM29.4986 4.824H30.4986V3.824H29.4986V4.824ZM29.4986 6.504V7.504H30.4986V6.504H29.4986ZM28.1866 6.504V5.504H27.1866V6.504H28.1866ZM28.5226 11.32L27.7569 11.9632L28.0566 12.32H28.5226V11.32ZM29.4986 11.32H30.4986V10.32H29.4986V11.32ZM29.4986 13V14H30.4986V13H29.4986ZM27.2266 13L26.5478 13.7343L26.8352 14H27.2266V13ZM26.2026 11.304L25.2197 11.4883L25.2207 11.4935L26.2026 11.304ZM27.0586 9.432V6.504H25.0586V9.432H27.0586ZM26.0586 5.504H24.9546V7.504H26.0586V5.504ZM25.9546 6.504V4.824H23.9546V6.504H25.9546ZM24.9546 5.824H26.0586V3.824H24.9546V5.824ZM27.0586 4.824V2.6H25.0586V4.824H27.0586ZM26.0586 3.6H28.1866V1.6H26.0586V3.6ZM27.1866 2.6V4.824H29.1866V2.6H27.1866ZM28.1866 5.824H29.4986V3.824H28.1866V5.824ZM28.4986 4.824V6.504H30.4986V4.824H28.4986ZM29.4986 5.504H28.1866V7.504H29.4986V5.504ZM27.1866 6.504V9.944H29.1866V6.504H27.1866ZM27.1866 9.944C27.1866 10.6509 27.2966 11.4152 27.7569 11.9632L29.2883 10.6768C29.3039 10.6954 29.2739 10.6692 29.2421 10.5388C29.2107 10.4101 29.1866 10.2171 29.1866 9.944H27.1866ZM28.5226 12.32H29.4986V10.32H28.5226V12.32ZM28.4986 11.32V13H30.4986V11.32H28.4986ZM29.4986 12H27.2266V14H29.4986V12ZM27.9055 12.2657C27.458 11.852 27.2525 11.4669 27.1845 11.1145L25.2207 11.4935C25.3874 12.3571 25.8646 13.1027 26.5478 13.7343L27.9055 12.2657ZM27.1855 11.1197C27.1045 10.6876 27.0586 10.1293 27.0586 9.432H25.0586C25.0586 10.2067 25.1088 10.8964 25.2198 11.4883L27.1855 11.1197ZM36.9815 9.304H37.9815V8.304H36.9815V9.304ZM35.2695 9.304V8.304H34.7917L34.4916 8.67566L35.2695 9.304ZM35.2855 11.32L34.5784 12.0271L34.8713 12.32H35.2855V11.32ZM36.9815 11.32V12.32H37.9815V11.32H36.9815ZM33.5415 4.824V3.824H32.5415V4.824H33.5415ZM37.5095 4.824L38.024 3.96651L37.7865 3.824H37.5095V4.824ZM38.7735 6.152L37.8464 6.5268L37.8492 6.53376L38.7735 6.152ZM39.1415 13V14H40.2012L40.1398 12.9421L39.1415 13ZM37.3175 13L36.4231 13.4472L36.6995 14H37.3175V13ZM37.0295 12.424L37.9239 11.9768L37.3289 10.7867L36.3512 11.6892L37.0295 12.424ZM34.2615 13L33.7113 13.8351L33.9617 14H34.2615V13ZM34.2935 7.752V6.752H33.9779L33.7194 6.93321L34.2935 7.752ZM36.9655 8.136L36.3888 8.95297L37.9655 10.0659V8.136H36.9655ZM36.4215 6.504L36.7786 5.56995L36.6062 5.504H36.4215V6.504ZM33.5415 6.504H32.5415V7.504H33.5415V6.504ZM36.9815 8.304H35.2695V10.304H36.9815V8.304ZM34.4916 8.67566C34.1006 9.15968 33.9335 9.73929 33.9335 10.344H35.9335C35.9335 10.1167 35.9904 10.003 36.0474 9.93234L34.4916 8.67566ZM33.9335 10.344C33.9335 10.9543 34.1114 11.5601 34.5784 12.0271L35.9926 10.6129C35.9903 10.6106 35.9335 10.5657 35.9335 10.344H33.9335ZM35.2855 12.32H36.9815V10.32H35.2855V12.32ZM37.9815 11.32V9.304H35.9815V11.32H37.9815ZM33.5415 5.824H37.5095V3.824H33.5415V5.824ZM36.995 5.68149C37.5182 5.99542 37.7511 6.29099 37.8464 6.52679L39.7006 5.77721C39.3906 5.01035 38.7808 4.42058 38.024 3.96651L36.995 5.68149ZM37.8492 6.53376C37.9807 6.85211 38.0775 7.37559 38.0775 8.168H40.0775C40.0775 7.25374 39.9716 6.43322 39.6978 5.77024L37.8492 6.53376ZM38.0775 8.168V10.568H40.0775V8.168H38.0775ZM38.0775 10.568C38.0775 11.4689 38.0992 12.2992 38.1432 13.0579L40.1398 12.9421C40.0985 12.2288 40.0775 11.4377 40.0775 10.568H38.0775ZM39.1415 12H37.3175V14H39.1415V12ZM38.2119 12.5528L37.9239 11.9768L36.1351 12.8712L36.4231 13.4472L38.2119 12.5528ZM36.3512 11.6892C36.175 11.8519 35.862 12 35.2695 12V14C36.1917 14 37.052 13.7641 37.7078 13.1588L36.3512 11.6892ZM35.2695 12H34.2615V14H35.2695V12ZM34.8117 12.1649C34.1963 11.7595 33.9015 11.2205 33.9015 10.424H31.9015C31.9015 11.8675 32.5134 13.0458 33.7113 13.8351L34.8117 12.1649ZM33.9015 10.424C33.9015 9.62031 34.2058 9.03482 34.8676 8.57079L33.7194 6.93321C32.5252 7.77052 31.9015 8.96636 31.9015 10.424H33.9015ZM34.2935 8.752H35.7975V6.752H34.2935V8.752ZM35.7975 8.752C35.9928 8.752 36.1829 8.80761 36.3888 8.95297L37.5422 7.31903C37.0228 6.95238 36.4342 6.752 35.7975 6.752V8.752ZM37.9655 8.136V7.336H35.9655V8.136H37.9655ZM37.9655 7.336C37.9655 6.98319 37.8877 6.60716 37.6665 6.26875C37.4417 5.92499 37.1218 5.70116 36.7786 5.56995L36.0644 7.43805C36.0771 7.44293 36.0698 7.44191 36.0521 7.42836C36.0331 7.4139 36.0112 7.39184 35.9925 7.36325C35.9526 7.30218 35.9655 7.27281 35.9655 7.336H37.9655ZM36.4215 5.504H33.5415V7.504H36.4215V5.504ZM34.5415 6.504V4.824H32.5415V6.504H34.5415ZM45.7016 4.824L46.4879 4.20618L46.1877 3.824H45.7016V4.824ZM46.9176 13V14H47.9176V13H46.9176ZM44.7896 13H43.7896V14H44.7896V13ZM44.3736 6.504L45.2239 5.97765L44.9307 5.504H44.3736V6.504ZM42.5816 6.504V5.504H41.5816V6.504H42.5816ZM42.5816 13V14H43.5816V13H42.5816ZM40.4536 13H39.4536V14H40.4536V13ZM40.4536 4.824V3.824H39.4536V4.824H40.4536ZM42.1176 4.824L43.0121 4.37679L42.7357 3.824H42.1176V4.824ZM42.4056 5.4L41.5112 5.84721L42.1015 7.0279L43.0783 6.13994L42.4056 5.4ZM43.0616 4.952L42.6902 4.02352L42.6819 4.02687L42.6736 4.03036L43.0616 4.952ZM44.0056 5.824H45.7016V3.824H44.0056V5.824ZM44.9153 5.44182C45.3219 5.9593 45.572 6.44244 45.7001 6.89072L47.6231 6.34128C47.4099 5.59489 47.02 4.88337 46.4879 4.20618L44.9153 5.44182ZM45.7001 6.89072C45.8367 7.36886 45.9176 8.01569 45.9176 8.856H47.9176C47.9176 7.90431 47.8279 7.05781 47.6231 6.34128L45.7001 6.89072ZM45.9176 8.856V13H47.9176V8.856H45.9176ZM46.9176 12H44.7896V14H46.9176V12ZM45.7896 13V8.696H43.7896V13H45.7896ZM45.7896 8.696C45.7896 7.6403 45.6541 6.67261 45.2239 5.97765L43.5234 7.03035C43.6478 7.23139 43.7896 7.72503 43.7896 8.696H45.7896ZM44.3736 5.504H42.5816V7.504H44.3736V5.504ZM41.5816 6.504V13H43.5816V6.504H41.5816ZM42.5816 12H40.4536V14H42.5816V12ZM41.4536 13V4.824H39.4536V13H41.4536ZM40.4536 5.824H42.1176V3.824H40.4536V5.824ZM41.2232 5.27121L41.5112 5.84721L43.3001 4.95279L43.0121 4.37679L41.2232 5.27121ZM43.0783 6.13994C43.2629 5.9721 43.3867 5.90017 43.4497 5.87364L42.6736 4.03036C42.3313 4.17449 42.0177 4.40123 41.733 4.66006L43.0783 6.13994ZM43.433 5.88048C43.4684 5.86633 43.6307 5.824 44.0056 5.824V3.824C43.5486 3.824 43.0815 3.86701 42.6902 4.02352L43.433 5.88048ZM48.2349 13H47.2349V14H48.2349V13ZM48.2349 4.824V3.824H47.2349V4.824H48.2349ZM50.3469 4.824H51.3469V3.824H50.3469V4.824ZM50.3469 13V14H51.3469V13H50.3469ZM48.2349 1.8V0.799999H47.2349V1.8H48.2349ZM50.3469 1.8H51.3469V0.799999H50.3469V1.8ZM50.3469 3.96V4.96H51.3469V3.96H50.3469ZM48.2349 3.96H47.2349V4.96H48.2349V3.96ZM49.2349 13V4.824H47.2349V13H49.2349ZM48.2349 5.824H50.3469V3.824H48.2349V5.824ZM49.3469 4.824V13H51.3469V4.824H49.3469ZM50.3469 12H48.2349V14H50.3469V12ZM48.2349 2.8H50.3469V0.799999H48.2349V2.8ZM49.3469 1.8V3.96H51.3469V1.8H49.3469ZM50.3469 2.96H48.2349V4.96H50.3469V2.96ZM49.2349 3.96V1.8H47.2349V3.96H49.2349ZM56.4073 4.824L57.221 4.24276L56.9219 3.824H56.4073V4.824ZM56.8073 5.384L55.9935 5.96524L56.6459 6.87855L57.4782 6.12554L56.8073 5.384ZM57.4473 4.952L57.0759 4.02352L57.0675 4.02687L57.0592 4.03036L57.4473 4.952ZM60.1673 4.824L60.9536 4.20618L60.6533 3.824H60.1673V4.824ZM61.1273 6.616L62.0888 6.34128L62.0888 6.34128L61.1273 6.616ZM61.3833 13V14H62.3833V13H61.3833ZM59.2552 13H58.2552V14H59.2552V13ZM58.8073 6.504L59.6563 5.9757L59.3628 5.504H58.8073V6.504ZM57.2713 6.504V5.504H55.6363L56.381 6.95948L57.2713 6.504ZM57.6233 13V14H58.6233V13H57.6233ZM55.4953 13H54.4953V14H55.4953V13ZM55.0793 6.504L55.9295 5.97765L55.6363 5.504H55.0793V6.504ZM53.8473 6.504V5.504H52.8473V6.504H53.8473ZM53.8473 13V14H54.8473V13H53.8473ZM51.7193 13H50.7193V14H51.7193V13ZM51.7193 4.824V3.824H50.7193V4.824H51.7193ZM53.3832 4.824L54.2777 4.37679L54.0013 3.824H53.3832V4.824ZM53.6713 5.4L52.7768 5.84721L53.3672 7.0279L54.3439 6.13994L53.6713 5.4ZM54.3273 4.952L53.9559 4.02352L53.9475 4.02687L53.9392 4.03036L54.3273 4.952ZM55.2713 5.824H56.4073V3.824H55.2713V5.824ZM55.5935 5.40524L55.9935 5.96524L57.621 4.80276L57.221 4.24276L55.5935 5.40524ZM57.4782 6.12554C57.6476 5.9722 57.7671 5.90234 57.8353 5.87364L57.0592 4.03036C56.722 4.17232 56.4149 4.39047 56.1363 4.64246L57.4782 6.12554ZM57.8186 5.88048C57.854 5.86633 58.0163 5.824 58.3913 5.824V3.824C57.9342 3.824 57.4672 3.86701 57.0759 4.02352L57.8186 5.88048ZM58.3913 5.824H60.1673V3.824H58.3913V5.824ZM59.3809 5.44182C59.7875 5.9593 60.0376 6.44244 60.1657 6.89072L62.0888 6.34128C61.8755 5.59489 61.4856 4.88337 60.9536 4.20618L59.3809 5.44182ZM60.1657 6.89072C60.3023 7.36886 60.3833 8.01569 60.3833 8.856H62.3833C62.3833 7.90431 62.2935 7.05781 62.0888 6.34128L60.1657 6.89072ZM60.3833 8.856V13H62.3833V8.856H60.3833ZM61.3833 12H59.2552V14H61.3833V12ZM60.2552 13V8.696H58.2552V13H60.2552ZM60.2552 8.696C60.2552 7.64844 60.1022 6.69235 59.6563 5.9757L57.9582 7.0323C58.1096 7.27565 58.2552 7.78089 58.2552 8.696H60.2552ZM58.8073 5.504H57.2713V7.504H58.8073V5.504ZM56.381 6.95948C56.5153 7.22189 56.6233 7.66841 56.6233 8.376H58.6233C58.6233 7.50493 58.4966 6.70344 58.1615 6.04852L56.381 6.95948ZM56.6233 8.376V13H58.6233V8.376H56.6233ZM57.6233 12H55.4953V14H57.6233V12ZM56.4953 13V8.696H54.4953V13H56.4953ZM56.4953 8.696C56.4953 7.6403 56.3597 6.67261 55.9295 5.97765L54.229 7.03035C54.3534 7.23139 54.4953 7.72503 54.4953 8.696H56.4953ZM55.0793 5.504H53.8473V7.504H55.0793V5.504ZM52.8473 6.504V13H54.8473V6.504H52.8473ZM53.8473 12H51.7193V14H53.8473V12ZM52.7193 13V4.824H50.7193V13H52.7193ZM51.7193 5.824H53.3832V3.824H51.7193V5.824ZM52.4888 5.27121L52.7768 5.84721L54.5657 4.95279L54.2777 4.37679L52.4888 5.27121ZM54.3439 6.13994C54.5285 5.9721 54.6523 5.90017 54.7153 5.87364L53.9392 4.03036C53.5969 4.17449 53.2833 4.40123 52.9986 4.66006L54.3439 6.13994ZM54.6986 5.88048C54.734 5.86633 54.8963 5.824 55.2713 5.824V3.824C54.8142 3.824 54.3472 3.86701 53.9559 4.02352L54.6986 5.88048ZM66.544 9.304H67.544V8.304H66.544V9.304ZM64.832 9.304V8.304H64.3542L64.0541 8.67566L64.832 9.304ZM64.848 11.32L64.1409 12.0271L64.4338 12.32H64.848V11.32ZM66.544 11.32V12.32H67.544V11.32H66.544ZM63.104 4.824V3.824H62.104V4.824H63.104ZM67.072 4.824L67.5865 3.96651L67.349 3.824H67.072V4.824ZM68.336 6.152L67.4089 6.5268L67.4117 6.53376L68.336 6.152ZM68.704 13V14H69.7637L69.7023 12.9421L68.704 13ZM66.88 13L65.9856 13.4472L66.262 14H66.88V13ZM66.592 12.424L67.4864 11.9768L66.8914 10.7867L65.9137 11.6892L66.592 12.424ZM63.824 13L63.2738 13.8351L63.5242 14H63.824V13ZM63.856 7.752V6.752H63.5404L63.2819 6.93321L63.856 7.752ZM66.528 8.136L65.9513 8.95297L67.528 10.0659V8.136H66.528ZM65.984 6.504L66.3411 5.56995L66.1687 5.504H65.984V6.504ZM63.104 6.504H62.104V7.504H63.104V6.504ZM66.544 8.304H64.832V10.304H66.544V8.304ZM64.0541 8.67566C63.6631 9.15968 63.496 9.73929 63.496 10.344H65.496C65.496 10.1167 65.5529 10.003 65.6099 9.93234L64.0541 8.67566ZM63.496 10.344C63.496 10.9543 63.6739 11.5601 64.1409 12.0271L65.5551 10.6129C65.5528 10.6106 65.496 10.5657 65.496 10.344H63.496ZM64.848 12.32H66.544V10.32H64.848V12.32ZM67.544 11.32V9.304H65.544V11.32H67.544ZM63.104 5.824H67.072V3.824H63.104V5.824ZM66.5575 5.68149C67.0807 5.99542 67.3136 6.29099 67.4089 6.52679L69.2631 5.77721C68.9531 5.01035 68.3433 4.42058 67.5865 3.96651L66.5575 5.68149ZM67.4117 6.53376C67.5432 6.85211 67.64 7.37559 67.64 8.168H69.64C69.64 7.25374 69.5341 6.43322 69.2603 5.77024L67.4117 6.53376ZM67.64 8.168V10.568H69.64V8.168H67.64ZM67.64 10.568C67.64 11.4689 67.6617 12.2992 67.7057 13.0579L69.7023 12.9421C69.661 12.2288 69.64 11.4377 69.64 10.568H67.64ZM68.704 12H66.88V14H68.704V12ZM67.7744 12.5528L67.4864 11.9768L65.6976 12.8712L65.9856 13.4472L67.7744 12.5528ZM65.9137 11.6892C65.7375 11.8519 65.4245 12 64.832 12V14C65.7542 14 66.6145 13.7641 67.2703 13.1588L65.9137 11.6892ZM64.832 12H63.824V14H64.832V12ZM64.3742 12.1649C63.7588 11.7595 63.464 11.2205 63.464 10.424H61.464C61.464 11.8675 62.0759 13.0458 63.2738 13.8351L64.3742 12.1649ZM63.464 10.424C63.464 9.62031 63.7683 9.03482 64.4301 8.57079L63.2819 6.93321C62.0877 7.77052 61.464 8.96636 61.464 10.424H63.464ZM63.856 8.752H65.36V6.752H63.856V8.752ZM65.36 8.752C65.5553 8.752 65.7454 8.80761 65.9513 8.95297L67.1047 7.31903C66.5853 6.95238 65.9967 6.752 65.36 6.752V8.752ZM67.528 8.136V7.336H65.528V8.136H67.528ZM67.528 7.336C67.528 6.98319 67.4502 6.60716 67.229 6.26875C67.0042 5.92499 66.6843 5.70116 66.3411 5.56995L65.6269 7.43805C65.6396 7.44293 65.6323 7.44191 65.6146 7.42836C65.5956 7.4139 65.5737 7.39184 65.555 7.36325C65.5151 7.30218 65.528 7.27281 65.528 7.336H67.528ZM65.984 5.504H63.104V7.504H65.984V5.504ZM64.104 6.504V4.824H62.104V6.504H64.104ZM70.2461 6.504H71.2461V5.504H70.2461V6.504ZM69.1421 6.504H68.1421V7.504H69.1421V6.504ZM69.1421 4.824V3.824H68.1421V4.824H69.1421ZM70.2461 4.824V5.824H71.2461V4.824H70.2461ZM70.2461 2.6V1.6H69.2461V2.6H70.2461ZM72.3741 2.6H73.3741V1.6H72.3741V2.6ZM72.3741 4.824H71.3741V5.824H72.3741V4.824ZM73.6861 4.824H74.6861V3.824H73.6861V4.824ZM73.6861 6.504V7.504H74.6861V6.504H73.6861ZM72.3741 6.504V5.504H71.3741V6.504H72.3741ZM72.7101 11.32L71.9444 11.9632L72.2441 12.32H72.7101V11.32ZM73.6861 11.32H74.6861V10.32H73.6861V11.32ZM73.6861 13V14H74.6861V13H73.6861ZM71.4141 13L70.7353 13.7343L71.0227 14H71.4141V13ZM70.3901 11.304L69.4072 11.4883L69.4082 11.4935L70.3901 11.304ZM71.2461 9.432V6.504H69.2461V9.432H71.2461ZM70.2461 5.504H69.1421V7.504H70.2461V5.504ZM70.1421 6.504V4.824H68.1421V6.504H70.1421ZM69.1421 5.824H70.2461V3.824H69.1421V5.824ZM71.2461 4.824V2.6H69.2461V4.824H71.2461ZM70.2461 3.6H72.3741V1.6H70.2461V3.6ZM71.3741 2.6V4.824H73.3741V2.6H71.3741ZM72.3741 5.824H73.6861V3.824H72.3741V5.824ZM72.6861 4.824V6.504H74.6861V4.824H72.6861ZM73.6861 5.504H72.3741V7.504H73.6861V5.504ZM71.3741 6.504V9.944H73.3741V6.504H71.3741ZM71.3741 9.944C71.3741 10.6509 71.4841 11.4152 71.9444 11.9632L73.4758 10.6768C73.4914 10.6954 73.4614 10.6692 73.4296 10.5388C73.3982 10.4101 73.3741 10.2171 73.3741 9.944H71.3741ZM72.7101 12.32H73.6861V10.32H72.7101V12.32ZM72.6861 11.32V13H74.6861V11.32H72.6861ZM73.6861 12H71.4141V14H73.6861V12ZM72.093 12.2657C71.6455 11.852 71.44 11.4669 71.372 11.1145L69.4082 11.4935C69.5749 12.3571 70.0521 13.1027 70.7353 13.7343L72.093 12.2657ZM71.373 11.1197C71.292 10.6876 71.2461 10.1293 71.2461 9.432H69.2461C69.2461 10.2067 69.2963 10.8964 69.4073 11.4883L71.373 11.1197ZM74.7505 13H73.7505V14H74.7505V13ZM74.7505 4.824V3.824H73.7505V4.824H74.7505ZM76.8625 4.824H77.8625V3.824H76.8625V4.824ZM76.8625 13V14H77.8625V13H76.8625ZM74.7505 1.8V0.799999H73.7505V1.8H74.7505ZM76.8625 1.8H77.8625V0.799999H76.8625V1.8ZM76.8625 3.96V4.96H77.8625V3.96H76.8625ZM74.7505 3.96H73.7505V4.96H74.7505V3.96ZM75.7505 13V4.824H73.7505V13H75.7505ZM74.7505 5.824H76.8625V3.824H74.7505V5.824ZM75.8625 4.824V13H77.8625V4.824H75.8625ZM76.8625 12H74.7505V14H76.8625V12ZM74.7505 2.8H76.8625V0.799999H74.7505V2.8ZM75.8625 1.8V3.96H77.8625V1.8H75.8625ZM76.8625 2.96H74.7505V4.96H76.8625V2.96ZM75.7505 3.96V1.8H73.7505V3.96H75.7505ZM83.0989 13V14H83.492L83.7799 13.7323L83.0989 13ZM79.6109 13L78.9299 13.7323L79.2177 14H79.6109V13ZM78.3629 6.68L77.4291 6.32206L77.4265 6.32889L77.424 6.33575L78.3629 6.68ZM79.5149 4.824V3.824H79.0611L78.7623 4.16549L79.5149 4.824ZM83.2589 4.824L84.0146 4.16907L83.7155 3.824H83.2589V4.824ZM84.3949 6.696L83.4462 7.01223L83.4479 7.0173L84.3949 6.696ZM80.7469 11.32L79.8786 11.8161L80.1666 12.32H80.7469V11.32ZM81.9629 11.32V12.32H82.5731L82.8522 11.7773L81.9629 11.32ZM81.9469 6.504L82.7668 5.93158L82.4683 5.504H81.9469V6.504ZM80.7469 6.504V5.504H80.2287L79.9299 5.92732L80.7469 6.504ZM83.0989 12H79.6109V14H83.0989V12ZM80.2919 12.2677C79.4652 11.4989 79.0109 10.4297 79.0109 8.936H77.0109C77.0109 10.877 77.6233 12.5171 78.9299 13.7323L80.2919 12.2677ZM79.0109 8.936C79.0109 8.15942 79.1167 7.52893 79.3018 7.02425L77.424 6.33575C77.1397 7.11107 77.0109 7.98458 77.0109 8.936H79.0109ZM79.2966 7.03794C79.4937 6.52392 79.8104 6.0049 80.2675 5.4825L78.7623 4.16549C78.1741 4.83777 77.7228 5.55608 77.4291 6.32206L79.2966 7.03794ZM79.5149 5.824H83.2589V3.824H79.5149V5.824ZM82.5032 5.47893C82.9981 6.05 83.296 6.56172 83.4462 7.01223L85.3436 6.37977C85.0884 5.61428 84.629 4.878 84.0146 4.16907L82.5032 5.47893ZM83.4479 7.0173C83.6041 7.47766 83.6989 8.10719 83.6989 8.936H85.6989C85.6989 7.97281 85.591 7.109 85.3419 6.3747L83.4479 7.0173ZM83.6989 8.936C83.6989 10.4297 83.2446 11.4989 82.4179 12.2677L83.7799 13.7323C85.0865 12.5171 85.6989 10.877 85.6989 8.936H83.6989ZM80.7469 12.32H81.9629V10.32H80.7469V12.32ZM82.8522 11.7773C83.3179 10.8717 83.5389 9.86343 83.5389 8.776H81.5389C81.5389 9.58724 81.3758 10.275 81.0736 10.8627L82.8522 11.7773ZM83.5389 8.776C83.5389 7.69707 83.3154 6.71735 82.7668 5.93158L81.1269 7.07642C81.3677 7.42131 81.5389 7.95626 81.5389 8.776H83.5389ZM81.9469 5.504H80.7469V7.504H81.9469V5.504ZM79.9299 5.92732C79.3804 6.70573 79.1709 7.71327 79.1709 8.824H81.1709C81.1709 7.9294 81.3453 7.39027 81.5638 7.08068L79.9299 5.92732ZM79.1709 8.824C79.1709 9.94203 79.3872 10.9562 79.8786 11.8161L81.6151 10.8239C81.3385 10.3398 81.1709 9.68997 81.1709 8.824H79.1709ZM91.0923 4.824L91.8786 4.20618L91.5783 3.824H91.0923V4.824ZM92.3083 13V14H93.3083V13H92.3083ZM90.1803 13H89.1803V14H90.1803V13ZM89.7643 6.504L90.6145 5.97765L90.3213 5.504H89.7643V6.504ZM87.9723 6.504V5.504H86.9723V6.504H87.9723ZM87.9723 13V14H88.9723V13H87.9723ZM85.8443 13H84.8443V14H85.8443V13ZM85.8443 4.824V3.824H84.8443V4.824H85.8443ZM87.5082 4.824L88.4027 4.37679L88.1263 3.824H87.5082V4.824ZM87.7963 5.4L86.9018 5.84721L87.4922 7.0279L88.4689 6.13994L87.7963 5.4ZM88.4523 4.952L88.0809 4.02352L88.0725 4.02687L88.0642 4.03036L88.4523 4.952ZM89.3963 5.824H91.0923V3.824H89.3963V5.824ZM90.3059 5.44182C90.7125 5.9593 90.9626 6.44244 91.0907 6.89072L93.0138 6.34128C92.8005 5.59489 92.4106 4.88337 91.8786 4.20618L90.3059 5.44182ZM91.0907 6.89072C91.2273 7.36886 91.3083 8.01569 91.3083 8.856H93.3083C93.3083 7.90431 93.2185 7.05781 93.0138 6.34128L91.0907 6.89072ZM91.3083 8.856V13H93.3083V8.856H91.3083ZM92.3083 12H90.1803V14H92.3083V12ZM91.1803 13V8.696H89.1803V13H91.1803ZM91.1803 8.696C91.1803 7.6403 91.0447 6.67261 90.6145 5.97765L88.914 7.03035C89.0384 7.23139 89.1803 7.72503 89.1803 8.696H91.1803ZM89.7643 5.504H87.9723V7.504H89.7643V5.504ZM86.9723 6.504V13H88.9723V6.504H86.9723ZM87.9723 12H85.8443V14H87.9723V12ZM86.8443 13V4.824H84.8443V13H86.8443ZM85.8443 5.824H87.5082V3.824H85.8443V5.824ZM86.6138 5.27121L86.9018 5.84721L88.6907 4.95279L88.4027 4.37679L86.6138 5.27121ZM88.4689 6.13994C88.6535 5.9721 88.7773 5.90017 88.8403 5.87364L88.0642 4.03036C87.7219 4.17449 87.4083 4.40123 87.1236 4.66006L88.4689 6.13994ZM88.8236 5.88048C88.859 5.86633 89.0213 5.824 89.3963 5.824V3.824C88.9392 3.824 88.4722 3.86701 88.0809 4.02352L88.8236 5.88048Z" fill="black" mask="url(#path-1-outside-1_238_187)"/>
</g>
<defs>
<filter id="filter0_d_238_187" x="0.160004" y="0.800049" width="97.1483" height="21.2" filterUnits="userSpaceOnUse" color-interpolation-filters="sRGB">
<feFlood flood-opacity="0" result="BackgroundImageFix"/>
<feColorMatrix in="SourceAlpha" type="matrix" values="0 0 0 0 0 0 0 0 0 0 0 0 0 0 0 0 0 0 127 0" result="hardAlpha"/>
<feOffset dy="4"/>
<feGaussianBlur stdDeviation="2"/>
<feComposite in2="hardAlpha" operator="out"/>
<feColorMatrix type="matrix" values="0 0 0 0 0 0 0 0 0 0 0 0 0 0 0 0 0 0 0.25 0"/>
<feBlend mode="normal" in2="BackgroundImageFix" result="effect1_dropShadow_238_187"/>
<feBlend mode="normal" in="SourceGraphic" in2="effect1_dropShadow_238_187" result="shape"/>
</filter>
</defs>
</svg>
